<?xml version="1.0" encoding="UTF-8"?>
<!DOCTYPE svg PUBLIC "-//W3C//DTD SVG 1.1//EN" "http://www.w3.org/Graphics/SVG/1.1/DTD/svg11.dtd">
<!-- Creator: CorelDRAW -->
<svg xmlns="http://www.w3.org/2000/svg" xml:space="preserve" width="500px" height="114px" style="shape-rendering:geometricPrecision; text-rendering:geometricPrecision; image-rendering:optimizeQuality; fill-rule:evenodd; clip-rule:evenodd"
viewBox="0 0 500.008 114.506"
 xmlns:xlink="http://www.w3.org/1999/xlink">
 <defs>
  <style type="text/css">
   <![CDATA[
    .fil2 {fill:none}
    .fil0 {fill:black}
    .fil1 {fill:black;fill-rule:nonzero}
   ]]>
  </style>
 </defs>
 <g id="Слой_x0020_1">
  <metadata id="CorelCorpID_0Corel-Layer"/>
  <g id="_178635816">
   <path id="_178613112" class="fil0" d="M43.061 52.3833l-11.4216 -11.4223 0.00114502 -15.2029c-1.32254,-0.453442 -2.52103,-1.20231 -3.51456,-2.19622l-0.147327 -0.148097 -0.00572509 -0.0152652c-1.63285,-1.71224 -2.5447,-3.97296 -2.5447,-6.34514 0,-2.35156 0.89582,-4.59473 2.50348,-6.30086l0.00343506 -0.0156503 0.188553 -0.188938c1.73095,-1.73056 4.06076,-2.69546 6.50851,-2.69546 2.44355,0.00725012 4.77603,0.964901 6.50507,2.69546 1.72636,1.734 2.69508,4.05923 2.69508,6.5066 0,2.44698 -0.964901,4.77603 -2.69546,6.50622l-0.188938 0.188548 -0.0160303 0.00420007c-1.1336,1.06758 -2.50691,1.82636 -4.00846,2.21302l-0.00114502 12.7888 9.88375 9.88337c0.760322,-0.439702 1.58324,-0.783603 2.45118,-1.01605l0 -16.1644 0.775968 -0.774058 9.97421 -9.97421c-0.612605,-1.25231 -0.93093,-2.62523 -0.93093,-4.02831 0,-2.44851 0.963376,-4.77756 2.69546,-6.51003 1.72904,-1.72789 4.05961,-2.68745 6.5024,-2.68783 2.44851,-0.00763512 4.77832,0.956505 6.50965,2.68783 1.73056,1.7298 2.69584,4.05961 2.69584,6.5066 0,2.44813 -0.965286,4.77756 -2.69584,6.50736 -1.73056,1.73056 -4.05923,2.69508 -6.5066,2.69508 -1.65461,0 -3.26189,-0.439702 -4.67527,-1.27445l-9.04824 9.0471 0 13.9693c0.867574,0.232444 1.69011,0.576344 2.45042,1.01528l11.4239 -11.4242 1.10307 0.000760012 14.1006 0.00114502c0.453447,-1.32292 1.20231,-2.52065 2.1966,-3.51494l0.146952 -0.146947 0.0160303 -0.00534509c1.71224,-1.63323 3.97258,-2.5447 6.34476,-2.5447 2.35195,0 4.59549,0.895435 6.30087,2.5031l0.0156503 0.00343506 0.189313 0.188933c1.73018,1.73018 2.69508,4.06037 2.69508,6.50812 -0.00725512,2.44469 -0.964901,4.77527 -2.69508,6.50545 -1.73438,1.72598 -4.05923,2.69432 -6.5066,2.69432 -2.44698,0 -4.77641,-0.964521 -6.50621,-2.69508l-0.189313 -0.189313 -0.00343506 -0.0152702c-1.0672,-1.13399 -1.82675,-2.50844 -2.21302,-4.00922l-12.7888 -0.000380006 -9.88528 9.88451c0.439322,0.759937 0.783223,1.58247 1.01605,2.44966l16.1659 0 0.774443 0.775963 9.97382 9.97459c1.2527,-0.61299 2.62562,-0.93093 4.02793,-0.93093 2.44927,0 4.77832,0.963371 6.51041,2.69546 1.72827,1.72827 2.68707,4.05923 2.68821,6.50201 0.00763012,2.44928 -0.957271,4.7787 -2.68821,6.51003 -1.72942,1.73018 -4.05923,2.69623 -6.50621,2.69623 -2.44851,0 -4.77718,-0.966051 -6.50774,-2.69623 -1.73018,-1.73056 -2.69546,-4.05961 -2.69546,-6.5066 0,-1.65461 0.440467,-3.26188 1.27559,-4.67565l-9.04709 -9.04786 -13.9693 0c-0.232064,0.867954 -0.575959,1.69087 -1.0149,2.45118l11.4235 11.4227 -0.000765012 1.10345 -0.00114502 14.1002c1.32292,0.453822 2.52027,1.20231 3.51418,2.1966l0.147712 0.147327 0.00534009 0.0160303c1.63438,1.71072 2.54432,3.97144 2.54432,6.34476 0,2.35156 -0.896195,4.59435 -2.50271,6.30048l-0.00420007 0.0160303 -0.188553 0.188933c-1.7298,1.73018 -4.05999,2.69546 -6.5085,2.69546 -2.44393,-0.00763512 -4.77451,-0.965281 -6.50545,-2.69546 -1.7256,-1.734 -2.69393,-4.05923 -2.69393,-6.50659 0,-2.44699 0.964901,-4.77565 2.69546,-6.5066l0.188548 -0.188553 0.0160353 -0.00343506c1.13322,-1.06719 2.50806,-1.82675 4.00884,-2.2134l0.000765012 -12.788 -9.88261 -9.88299c-0.760317,0.440082 -1.58361,0.783983 -2.45194,1.01719l0 16.1602 -10.7502 10.7498c0.612605,1.25269 0.930165,2.62599 0.930165,4.02831 0,2.44966 -0.962991,4.77832 -2.69508,6.51041 -1.72865,1.72827 -4.05885,2.68707 -6.50202,2.68821 -2.44889,0.00801513 -4.77832,-0.957266 -6.50965,-2.68821 -1.73018,-1.7298 -2.69661,-4.05923 -2.69661,-6.50659 0,-2.44813 0.966426,-4.7768 2.69661,-6.50774 1.73018,-1.72942 4.05961,-2.6947 6.50583,-2.6947 1.65461,0 3.26226,0.439702 4.67603,1.27483l9.04785 -9.0471 0 -13.9655c-0.868714,-0.232449 -1.69201,-0.576344 -2.45347,-1.01605l-11.42 11.4196 -15.2041 -0.000765012c-0.453827,1.32254 -1.20269,2.52065 -2.19622,3.51494l-0.147332 0.147332 -0.0160303 0.00572509c-1.71071,1.63362 -3.9722,2.54394 -6.34476,2.54394 -2.35195,0 -4.59435,-0.8962 -6.30125,-2.5031l-0.0152652 -0.00343506 -0.189318 -0.188933c-1.73018,-1.73056 -2.69508,-4.06037 -2.69508,-6.50812 0.00687011,-2.44393 0.964906,-4.77603 2.69508,-6.50545 1.73362,-1.72598 4.05923,-2.69432 6.50621,-2.69432 2.44737,0 4.77603,0.964521 6.5066,2.69546l0.188933 0.188933 0.00382006 0.0152702c1.06795,1.13399 1.82598,2.50767 2.21339,4.00922l12.788 0.00114502 9.88184 -9.88184c-0.440082,-0.761082 -0.784363,-1.58438 -1.01719,-2.45309l-16.159 0 -10.7506 -10.7502c-1.25269,0.612605 -2.62523,0.93055 -4.02831,0.93055 -2.44889,0 -4.77756,-0.962991 -6.50965,-2.69508 -1.72903,-1.72903 -2.68745,-4.05961 -2.68859,-6.5024 -0.00763012,-2.44851 0.957271,-4.7787 2.68859,-6.51003 1.72904,-1.73018 4.05923,-2.69585 6.5066,-2.69585 2.44737,0 4.77679,0.965666 6.50698,2.69585 1.73018,1.73056 2.69546,4.05923 2.69546,6.50659 0,1.65423 -0.440082,3.26189 -1.27483,4.67489l9.04709 9.04862 13.9663 0c0.232829,-0.868334 0.576729,-1.69163 1.01643,-2.45233zm27.9779 -38.4663c-0.737037,-0.736652 -1.7256,-1.14544 -2.76378,-1.1504 -1.04048,0 -2.02446,0.416802 -2.75806,1.1504 -0.736652,0.735892 -1.14315,1.72369 -1.14315,2.76455 0,1.0378 0.404967,2.02561 1.142,2.75844 0.734742,0.735127 1.72178,1.14353 2.76149,1.14353 1.03933,0 2.02713,-0.408407 2.76149,-1.14315 0.735127,-0.735512 1.14429,-1.72217 1.14429,-2.76226 0,-1.04009 -0.409552,-2.02599 -1.14429,-2.76111zm25.2088 26.292c-0.00687011,-1.04124 -0.415272,-2.03133 -1.14887,-2.76989 -0.735507,-0.734362 -1.72445,-1.13818 -2.76264,-1.13818 -1.04086,0 -2.02713,0.406112 -2.76264,1.14467 -0.734362,0.733602 -1.14238,1.72178 -1.14238,2.75997 0,1.03895 0.403822,2.02599 1.14238,2.75996 0.735127,0.735512 1.72407,1.14429 2.76187,1.14429 1.03895,0 2.0279,-0.404587 2.7615,-1.14315 0.735507,-0.733977 1.15078,-1.72178 1.15078,-2.75767zm-0.774823 36.4044c0.736657,-0.736652 1.14506,-1.7256 1.1504,-2.76378 0,-1.03857 -0.417182,-2.02446 -1.1504,-2.75768 -0.736272,-0.736272 -1.72445,-1.14315 -2.76531,-1.14315 -1.03704,0 -2.02484,0.404972 -2.75768,1.142 -0.735127,0.734362 -1.14391,1.7214 -1.14391,2.76149 0,1.03895 0.408782,2.02713 1.14315,2.76111 0.735507,0.735892 1.72216,1.14429 2.76264,1.14429 1.03971,0 2.02598,-0.409167 2.76111,-1.14429zm-26.292 25.2084c1.04086,-0.00572509 2.03133,-0.415272 2.76989,-1.14849 0.733982,-0.736272 1.13857,-1.72331 1.13857,-2.76225 0,-1.03971 -0.406492,-2.0279 -1.14544,-2.76264 -0.733982,-0.734362 -1.7214,-1.14314 -2.75996,-1.14314 -1.03857,0 -2.02561,0.404587 -2.75997,1.14314 -0.735507,0.734747 -1.14467,1.72369 -1.14467,2.7615 0,1.03895 0.404967,2.02827 1.14353,2.76225 0.734362,0.734367 1.7214,1.14964 2.75806,1.14964zm-36.4052 -0.774058c0.737417,0.735887 1.72598,1.14505 2.76416,1.14963 1.03895,0 2.02408,-0.416037 2.75806,-1.14963 0.736272,-0.736272 1.14315,-1.72446 1.14315,-2.76531 0,-1.03742 -0.405347,-2.02484 -1.142,-2.75729 -0.735122,-0.735507 -1.72216,-1.14467 -2.76225,-1.14467 -1.03895,0 -2.02637,0.409167 -2.76111,1.14353 -0.735507,0.735127 -1.14429,1.72216 -1.14429,2.76226 0,1.03971 0.409932,2.0256 1.14429,2.76149zm-25.208 -26.2924c0.00649011,1.04086 0.414892,2.03133 1.14849,2.77065 0.735892,0.733602 1.72369,1.1378 2.76264,1.1378 1.03933,0 2.0279,-0.405732 2.76187,-1.14505 0.734747,-0.733602 1.14353,-1.7214 1.14353,-2.75997 0,-1.03933 -0.405352,-2.02675 -1.14353,-2.76035 -0.733977,-0.735127 -1.72331,-1.14429 -2.76149,-1.14429 -1.03857,0 -2.02751,0.405352 -2.76149,1.14315 -0.735127,0.734742 -1.15002,1.72178 -1.15002,2.75806zm0.774058 -36.4048c-0.736267,0.737037 -1.14467,1.72598 -1.15002,2.76378 0,1.03933 0.416802,2.02484 1.15002,2.75806 0.736272,0.736267 1.72408,1.14353 2.76493,1.14353 1.03742,0 2.0256,-0.404972 2.75806,-1.14277 0.735507,-0.733982 1.14429,-1.72102 1.14429,-2.76111 0,-1.03895 -0.408787,-2.02675 -1.14315,-2.76149 -0.735892,-0.735127 -1.72293,-1.14391 -2.76226,-1.14391 -1.04009,0 -2.02637,0.409547 -2.76188,1.14391zm26.292 -25.2084c-1.04009,0.00649011 -2.03133,0.415277 -2.77027,1.14887 -0.733217,0.735512 -1.1378,1.72408 -1.1378,2.76226 0,1.04086 0.406497,2.02713 1.14467,2.76226 0.733982,0.735127 1.72217,1.14315 2.75997,1.14315 1.03971,0 2.02713,-0.404972 2.76111,-1.14315 0.735127,-0.734362 1.14353,-1.72331 1.14353,-2.76111 0,-1.03933 -0.404967,-2.02789 -1.14277,-2.76149 -0.734742,-0.735507 -1.7214,-1.15078 -2.75844,-1.15078z"/>
   <polygon id="_147056904" class="fil0" points="119.012,1.1866 121.66,1.1866 121.66,113.319 119.012,113.319 "/>
   <path id="_147052200" class="fil1" d="M142.139 35.7684l0 37.6648 9.55672 0 0 -12.4799 2.47343 0 6.2402 12.4799 10.9621 0 -8.15139 -14.841c1.69593,-1.13369 3.00747,-2.56721 3.93513,-4.29107 0.927665,-1.73334 1.39611,-3.7104 1.40533,-5.94011 -0.00922515,-1.84584 -0.346461,-3.54178 -1.0212,-5.07831 -0.674476,-1.52731 -1.62085,-2.85756 -2.83886,-3.98203 -1.22749,-1.12421 -2.67971,-1.98627 -4.34746,-2.60462 -1.66774,-0.608875 -3.5041,-0.91818 -5.50908,-0.927665l-12.7049 0zm12.1426 17.0336l-2.58592 0 0 -8.88223 2.58592 0c0.965081,0 1.79895,0.187323 2.50162,0.552749 0.702666,0.365431 1.2462,0.880769 1.63033,1.55551 0.393356,0.665251 0.590165,1.46145 0.590165,2.38911 0,0.880769 -0.196808,1.65826 -0.590165,2.31429 -0.384131,0.64628 -0.927665,1.16162 -1.63033,1.51783 -0.702666,0.365426 -1.53653,0.543264 -2.50162,0.552749zm27.8835 21.4746c1.13369,0.00922515 2.15489,-0.0937915 3.05436,-0.2906 0.9087,-0.196813 1.75205,-0.552754 2.54825,-1.04939 0.787238,-0.505853 1.58343,-1.1993 2.37989,-2.08928l0 2.58592 8.76975 0 0 -14.616c-0.00922015,-1.76154 -0.30905,-3.38238 -0.91818,-4.85331 -0.59965,-1.4712 -1.45223,-2.74532 -2.55774,-3.8229 -1.10577,-1.0868 -2.42679,-1.92067 -3.94462,-2.51083 -1.52705,-0.590425 -3.21377,-0.890249 -5.05935,-0.89947 -1.58344,0 -3.03566,0.131202 -4.35695,0.393351 -1.32102,0.271899 -2.56696,0.702926 -3.72885,1.29309 -1.1524,0.580944 -2.2861,1.34921 -3.38238,2.3048l5.05935 5.95881c0.656031,-0.871279 1.4243,-1.54576 2.30507,-2.00498 0.880504,-0.458957 1.81765,-0.693176 2.81066,-0.693176 0.965081,0.00922015 1.81765,0.206028 2.5767,0.59965 0.749562,0.393351 1.33973,0.936885 1.77076,1.63006 0.431032,0.702666 0.64655,1.50861 0.655771,2.43601l0 0.224999c-0.815168,-0.477928 -1.75205,-0.852574 -2.79196,-1.11499 -1.04939,-0.262414 -2.17387,-0.402842 -3.39187,-0.402842 -2.09851,0.00922515 -3.93513,0.393356 -5.52779,1.1337 -1.59292,0.749557 -2.82963,1.78024 -3.72911,3.09178 -0.899475,1.3118 -1.34921,2.82962 -1.36792,4.54426 0.00948515,1.57395 0.393616,2.96057 1.14318,4.18806 0.740077,1.218 1.78024,2.18308 3.09178,2.88575 1.32102,0.702661 2.85782,1.05861 4.59117,1.07757zm3.20428 -6.18381c-1.02146,-0.00948515 -1.82714,-0.234224 -2.4173,-0.674736 -0.59043,-0.440252 -0.890254,-1.05861 -0.899475,-1.85507 0.00922015,-0.824388 0.337235,-1.47093 0.974301,-1.93015 0.63706,-0.468443 1.51783,-0.702666 2.6236,-0.711887 0.702666,0 1.42404,0.103017 2.16412,0.31853 0.740342,0.215513 1.51783,0.552749 2.333,1.03068 -0.0656061,0.740077 -0.299825,1.39585 -0.711887,1.96757 -0.412327,0.571459 -0.974566,1.0212 -1.66801,1.34895 -0.693181,0.328015 -1.48964,0.496633 -2.39834,0.506118zm30.0755 6.18381c1.57421,-0.00948515 2.99825,-0.2906 4.26315,-0.843354 1.27412,-0.552749 2.3986,-1.33973 3.38238,-2.36118l0 2.36118 8.43225 0 0 -39.9133 -8.76948 0 0 16.0778c-0.983786,-0.90896 -2.08007,-1.61162 -3.29807,-2.10825 -1.20878,-0.496373 -2.54851,-0.749562 -4.01022,-0.758782 -1.74257,0.00922015 -3.35419,0.355941 -4.84383,1.04938 -1.48042,0.683961 -2.79222,1.64904 -3.90694,2.88575 -1.11499,1.23671 -1.98628,2.69842 -2.60489,4.36616 -0.62758,1.66774 -0.94611,3.49462 -0.955595,5.47166 0.00948515,1.97679 0.328015,3.80393 0.955595,5.47166 0.618615,1.66774 1.4899,3.12919 2.60489,4.36616 1.11473,1.23671 2.42652,2.20179 3.90694,2.88575 1.48964,0.693176 3.10127,1.0399 4.84383,1.04938zm2.02395 -8.20776c-1.05887,-0.00922015 -1.99576,-0.252924 -2.81092,-0.730592 -0.815168,-0.477928 -1.46145,-1.13369 -1.93016,-1.96756 -0.468443,-0.833874 -0.702666,-1.78972 -0.711887,-2.86704 0.00922015,-1.07757 0.243444,-2.03317 0.711887,-2.86704 0.468708,-0.833869 1.11499,-1.4899 1.93016,-1.96756 0.815163,-0.477928 1.75205,-0.721372 2.81092,-0.730857 1.07732,0.00948515 2.02369,0.252929 2.85756,0.730857 0.824648,0.477663 1.47093,1.13369 1.93938,1.96756 0.468443,0.833869 0.702926,1.78946 0.712152,2.86704 -0.00922515,1.11499 -0.243709,2.08929 -0.712152,2.91367 -0.468443,0.833874 -1.11473,1.48042 -1.93938,1.94886 -0.833874,0.459217 -1.78024,0.693441 -2.85756,0.702661zm19.6757 -18.4951l0 25.8595 8.76948 0 0 -25.8595 -8.76948 0zm4.38461 -3.59763c0.927665,-0.00948515 1.76153,-0.234224 2.5111,-0.674736 0.740082,-0.431032 1.33051,-1.0212 1.76154,-1.77076 0.440252,-0.740072 0.665256,-1.57395 0.674476,-2.50161 -0.00922015,-0.92766 -0.234224,-1.76153 -0.674476,-2.5111 -0.431032,-0.740072 -1.02146,-1.33024 -1.76154,-1.77075 -0.749562,-0.431032 -1.58343,-0.655766 -2.5111,-0.665251 -0.927405,0.00948515 -1.76127,0.234219 -2.51084,0.665251 -0.740082,0.440517 -1.33051,1.03068 -1.76154,1.77075 -0.440252,0.749562 -0.665256,1.58344 -0.674476,2.5111 0.00922015,0.927665 0.234224,1.76154 0.674476,2.50161 0.431032,0.749562 1.02146,1.33973 1.76154,1.77076 0.749562,0.440512 1.58343,0.665251 2.51084,0.674736zm22.9363 30.3004c1.99576,-0.00948515 3.84134,-0.365426 5.53727,-1.06809 1.70516,-0.702931 3.18558,-1.67723 4.4597,-2.93264 1.27439,-1.2462 2.2674,-2.7079 2.97954,-4.37565 0.702666,-1.65826 1.06809,-3.4572 1.07758,-5.39658 -0.00948515,-1.93964 -0.374911,-3.73858 -1.08706,-5.40632 -0.711887,-1.65826 -1.71437,-3.11997 -2.98876,-4.3659 -1.27413,-1.25568 -2.76402,-2.22998 -4.4597,-2.93264 -1.69593,-0.702661 -3.54178,-1.05887 -5.51857,-1.06809 -1.99576,0.00922015 -3.84134,0.365426 -5.53727,1.0586 -1.70516,0.702666 -3.18558,1.66774 -4.45996,2.91394 -1.27413,1.25542 -2.2674,2.70764 -2.97928,4.37538 -0.702661,1.66774 -1.06809,3.47617 -1.07758,5.42503 0.00948515,1.93938 0.374916,3.73832 1.0868,5.39658 0.721632,1.66774 1.71464,3.12945 2.98903,4.37565 1.27412,1.25542 2.76376,2.22971 4.4597,2.93264 1.70515,0.702661 3.54152,1.0586 5.51857,1.06809zm0 -8.31999c-1.05887,-0.00948515 -1.96757,-0.234219 -2.73584,-0.674736 -0.777753,-0.449737 -1.3774,-1.0868 -1.79895,-1.91118 -0.421547,-0.815163 -0.62784,-1.78972 -0.63706,-2.92342 0.00922015,-1.07731 0.215513,-2.0142 0.63706,-2.82014 0.421547,-0.815163 1.0212,-1.44274 1.79895,-1.89248 0.768272,-0.449737 1.67697,-0.674736 2.73584,-0.683956 1.05861,0.00922015 1.96757,0.234219 2.74506,0.683956 0.768527,0.449737 1.36818,1.07731 1.78972,1.89248 0.421547,0.805943 0.637065,1.74283 0.637065,2.82014 0,1.1337 -0.215518,2.10826 -0.637065,2.92342 -0.421547,0.824383 -1.0212,1.46144 -1.78972,1.91118 -0.777493,0.440517 -1.68645,0.665251 -2.74506,0.674736zm18.5515 -32.4366l0 39.9133 8.76948 0 0 -39.9133 -8.76948 0zm27.321 40.7566c1.99576,-0.00948515 3.84134,-0.365426 5.53727,-1.06809 1.70515,-0.702931 3.18557,-1.67723 4.4597,-2.93264 1.27439,-1.2462 2.26739,-2.7079 2.97954,-4.37565 0.702666,-1.65826 1.06809,-3.4572 1.07758,-5.39658 -0.00948515,-1.93964 -0.374911,-3.73858 -1.08706,-5.40632 -0.711887,-1.65826 -1.71438,-3.11997 -2.98876,-4.3659 -1.27413,-1.25568 -2.76403,-2.22998 -4.4597,-2.93264 -1.69594,-0.702661 -3.54178,-1.05887 -5.51857,-1.06809 -1.99576,0.00922015 -3.84134,0.365426 -5.53728,1.0586 -1.70515,0.702666 -3.18557,1.66774 -4.45996,2.91394 -1.27412,1.25542 -2.26739,2.70764 -2.97928,4.37538 -0.702666,1.66774 -1.06809,3.47617 -1.07758,5.42503 0.00948515,1.93938 0.374911,3.73832 1.0868,5.39658 0.721637,1.66774 1.71464,3.12945 2.98903,4.37565 1.27413,1.25542 2.76376,2.22971 4.4597,2.93264 1.70516,0.702661 3.54152,1.0586 5.51857,1.06809zm0 -8.31999c-1.05887,-0.00948515 -1.96757,-0.234219 -2.73584,-0.674736 -0.777753,-0.449737 -1.3774,-1.0868 -1.79895,-1.91118 -0.421547,-0.815163 -0.62784,-1.78972 -0.63706,-2.92342 0.00922015,-1.07731 0.215513,-2.0142 0.63706,-2.82014 0.421547,-0.815163 1.0212,-1.44274 1.79895,-1.89248 0.768267,-0.449737 1.67697,-0.674736 2.73584,-0.683956 1.05861,0.00922015 1.96757,0.234219 2.74505,0.683956 0.768532,0.449737 1.36818,1.07731 1.78973,1.89248 0.421547,0.805943 0.63706,1.74283 0.63706,2.82014 0,1.1337 -0.215513,2.10826 -0.63706,2.92342 -0.421547,0.824383 -1.0212,1.46144 -1.78973,1.91118 -0.777488,0.440517 -1.68645,0.665251 -2.74505,0.674736zm30.0547 15.2344c-1.58343,0 -2.80381,-0.287445 -3.65401,-0.833874 -0.854159,-0.549059 -1.2931,-1.32102 -1.2931,-2.31428 0,-0.993006 0.440517,-1.75205 1.2931,-2.2861 0.852579,-0.534044 2.07058,-0.805678 3.65401,-0.805678 1.58344,0 2.80144,0.271634 3.65402,0.805678 0.852579,0.534044 1.2931,1.29309 1.2931,2.2861 0,0.993266 -0.438937,1.76522 -1.2931,2.31428 -0.850204,0.546429 -2.07058,0.833874 -3.65402,0.833874zm-0.0561159 6.29631c2.77325,-0.00948515 5.16131,-0.426027 7.18631,-1.23671 2.02184,-0.809368 3.58157,-1.95703 4.68444,-3.44798 1.10761,-1.49701 1.67723,-3.26988 1.67723,-5.32175 0,-1.36792 -0.258984,-2.55088 -0.749562,-3.551 -0.492418,-1.00407 -1.16742,-1.84189 -2.01446,-2.52032 -0.848099,-0.679481 -1.81792,-1.21853 -2.90446,-1.62111 -1.08627,-0.402577 -2.22102,-0.692916 -3.4198,-0.871284 -1.18955,-0.176783 -2.38068,-0.262409 -3.56022,-0.262409l-3.20454 0c-1.19825,0 -2.06242,-0.129627 -2.59515,-0.393356 -0.525354,-0.260304 -0.782758,-0.675001 -0.777753,-1.23671 0.00342506,-0.393091 0.126727,-0.717157 0.374911,-0.974561 0.248189,-0.257404 0.608875,-0.458957 1.0868,-0.59965 0.534044,0.140692 1.08759,0.239494 1.65826,0.299825 0.571724,0.060596 1.18138,0.0961666 1.82714,0.0937965 1.75205,-0.0063251 3.35498,-0.242654 4.8159,-0.712152 1.45223,-0.466598 2.71766,-1.13396 3.78523,-1.99549 1.06783,-0.861534 1.89643,-1.87272 2.48265,-3.05462 0.584104,-1.17822 0.883929,-2.48264 0.890254,-3.90694 0.00237004,-0.533254 -0.0418907,-1.0507 -0.131207,-1.55524 -0.0879964,-0.497163 -0.234224,-0.974561 -0.431032,-1.4243l2.86704 0 0 -5.62158 -9.05087 0c-0.758782,-0.28112 -1.57421,-0.497688 -2.43601,-0.63706 -0.870759,-0.140952 -1.78077,-0.208928 -2.73583,-0.206028 -1.75179,0.00553009 -3.35446,0.243969 -4.80642,0.702661 -1.4517,0.458692 -2.70817,1.11525 -3.76652,1.96757 -1.05835,0.852049 -1.88563,1.85454 -2.4642,3.01695 -0.582259,1.16979 -0.880504,2.45471 -0.880504,3.86953 0,1.3118 0.260834,2.50293 0.758782,3.5697 0.494528,1.05914 1.1993,2.02368 2.108,2.89523 -1.04913,0.534044 -1.88115,1.21036 -2.49213,2.0329 -0.606235,0.816218 -0.932145,1.78999 -0.93689,2.91394 -0.00368506,0.927135 0.226584,1.77023 0.683961,2.52032 0.450792,0.739022 1.14292,1.38662 2.07058,1.92067 -2.02369,1.57421 -3.04119,3.59816 -3.03566,6.07157 0.00316005,1.39532 0.331965,2.65916 0.965076,3.79444 0.63074,1.13132 1.53653,2.11747 2.71713,2.93264 1.18059,0.815163 2.59515,1.44432 4.23496,1.88326 1.64825,0.441042 3.4854,0.655766 5.51857,0.665251l0 0zm-0.674736 -27.9395c-1.10551,-0.00922515 -1.96072,-0.30694 -2.56722,-0.889989 -0.601495,-0.578309 -0.91818,-1.3774 -0.91818,-2.3704 0,-0.993271 0.316685,-1.7921 0.91818,-2.37041 0.6065,-0.583049 1.46171,-0.890249 2.56722,-0.890249 1.1055,0 1.96098,0.307465 2.56722,0.890249 0.601495,0.578309 0.91818,1.37714 0.91818,2.37041 0,0.993001 -0.316685,1.79209 -0.91818,2.3704 -0.606235,0.582784 -1.46171,0.880764 -2.56722,0.889989l0 0zm25.9364 14.4477l-5.00323 13.4918 8.88225 0 14.7847 -39.9135 -8.99448 0 -4.49737 15.3472 -5.28409 -15.3472 -9.33199 0 9.44422 26.4217zm34.6856 -38.2271l0 37.6648 9.55672 0 0 -14.616 12.9296 0 0 14.616 9.55672 0 0 -37.6648 -9.55672 0 0 14.0541 -12.9296 0 0 -14.0541 -9.55672 0zm48.0647 38.5082c1.49912,-0.00948515 2.85756,-0.356206 4.09427,-1.05887 1.23672,-0.702666 2.30481,-1.71464 3.21377,-3.04514l0 3.26066 8.43251 0 0 -25.8595 -8.76975 0 0 13.6043c0,1.05887 -0.159393,1.96756 -0.468443,2.73583 -0.30931,0.777753 -0.749562,1.3774 -1.33051,1.79895 -0.580939,0.421547 -1.27439,0.62784 -2.08007,0.63706 -0.805678,-0.00922015 -1.49912,-0.215513 -2.08006,-0.618355 -0.580684,-0.412327 -1.0212,-0.983781 -1.33025,-1.72386 -0.30931,-0.740342 -0.468443,-1.60214 -0.468443,-2.60463l0 -13.8293 -8.76975 0 0 16.0778c0.00922015,1.5086 0.252929,2.91393 0.730857,4.19754 0.477663,1.28361 1.14292,2.40808 2.00498,3.37289 0.861799,0.955855 1.86455,1.70542 3.02617,2.23946 1.16189,0.534049 2.42679,0.805678 3.79471,0.815163zm37.4399 0c1.74257,-0.00948515 3.35419,-0.356206 4.84383,-1.04938 1.48964,-0.683961 2.79222,-1.64904 3.90695,-2.88575 1.11499,-1.23697 1.98654,-2.69842 2.61411,-4.36616 0.618355,-1.66774 0.93689,-3.49488 0.946375,-5.47166 -0.00948515,-1.97705 -0.32802,-3.80392 -0.946375,-5.47166 -0.627575,-1.66774 -1.49912,-3.12945 -2.61411,-4.36616 -1.11473,-1.23671 -2.41731,-2.20179 -3.90695,-2.88575 -1.48964,-0.693441 -3.10126,-1.04016 -4.84383,-1.04938 -1.46171,0.00922015 -2.80144,0.262409 -4.01022,0.758782 -1.218,0.496633 -2.31429,1.19929 -3.29807,2.10825l0 -16.0778 -8.76949 0 0 39.9133 8.43225 0 0 -2.36118c0.983786,1.02146 2.10826,1.80843 3.38238,2.36118 1.2649,0.552754 2.68894,0.833869 4.26315,0.843354zm-2.02395 -8.20776c-1.07731,-0.00922015 -2.02369,-0.252924 -2.84807,-0.730592 -0.824653,-0.477928 -1.48042,-1.13369 -1.94886,-1.96756 -0.468443,-0.833874 -0.702666,-1.78972 -0.712152,-2.86704 0.00948515,-1.11499 0.243709,-2.08955 0.712152,-2.91393 0.468443,-0.833869 1.12421,-1.48041 1.94886,-1.94886 0.824383,-0.458962 1.77076,-0.693181 2.84807,-0.702666 1.05887,0.00948515 1.99576,0.252929 2.81093,0.730857 0.824388,0.477663 1.46145,1.13369 1.93016,1.96756 0.468443,0.833869 0.702666,1.78946 0.711887,2.86704 -0.00922015,1.07732 -0.243444,2.03317 -0.711887,2.86704 -0.468708,0.833869 -1.10577,1.48963 -1.93016,1.96756 -0.815163,0.477668 -1.75205,0.721372 -2.81093,0.730592z"/>
  </g>
  <polygon class="fil2" points="-0,0 500.008,0 500.008,114.506 -0,114.506 "/>
 </g>
</svg>
