<svg xmlns="http://www.w3.org/2000/svg" 
viewBox="0 0 499.898 114.48">
 <g id="Слой_x0020_1">
  <g id="_178627680">
   <path id="_178622496" class="fil0" d="M43.0511 52.3718l-11.419 -11.4198 0.00114477 -15.1996c-1.32225,-0.453342 -2.52048,-1.20204 -3.51379,-2.19573l-0.1473 -0.148065 -0.00572383 -0.0152619c-1.63249,-1.71187 -2.54414,-3.97209 -2.54414,-6.34375 0,-2.35105 0.895617,-4.59372 2.50292,-6.29947l0.0034343 -0.0156468 0.188512 -0.188896c1.73056,-1.73018 4.05986,-2.69487 6.50707,-2.69487 2.44302,0.00724852 4.77498,0.964688 6.50364,2.69487 1.72598,1.73362 2.69449,4.05834 2.69449,6.50516 0,2.44645 -0.964688,4.77498 -2.69487,6.50478l-0.188891 0.188507 -0.0160267 0.00419914c-1.13336,1.06734 -2.50636,1.82596 -4.00758,2.21253l-0.00114477 12.7859 9.88157 9.88119c0.76015,-0.439605 1.58288,-0.78343 2.45064,-1.01582l0 -16.1608 0.775797 -0.773887 9.97201 -9.97201c-0.61247,-1.25203 -0.930725,-2.62465 -0.930725,-4.02742 0,-2.44798 0.963163,-4.77651 2.69487,-6.5086 1.72865,-1.72751 4.05871,-2.68686 6.50096,-2.68724 2.44797,-0.00763344 4.77727,0.956295 6.50821,2.68724 1.73018,1.72942 2.69525,4.05872 2.69525,6.50516 0,2.44759 -0.965068,4.77651 -2.69525,6.50592 -1.73018,1.73018 -4.05833,2.69449 -6.50516,2.69449 -1.65425,0 -3.26117,-0.439605 -4.67424,-1.27417l-9.04624 9.0451 0 13.9662c0.867383,0.232393 1.68973,0.576217 2.44988,1.01506l11.4213 -11.4217 1.10283 0.000759845 14.0975 0.00114477c0.453342,-1.32263 1.20204,-2.5201 2.19612,-3.51417l0.146915 -0.146915 0.0160317 -0.00534391c1.71186,-1.63287 3.9717,-2.54414 6.34336,-2.54414 2.35143,0 4.59448,0.895237 6.29947,2.50254l0.0156468 0.0034343 0.189276 0.188891c1.7298,1.7298 2.69449,4.05948 2.69449,6.50669 -0.00724852,2.44416 -0.964688,4.77422 -2.69449,6.50402 -1.734,1.7256 -4.05833,2.69373 -6.50516,2.69373 -2.44645,0 -4.77536,-0.964308 -6.50478,-2.69449l-0.189276 -0.189271 -0.0034343 -0.0152669c-1.06696,-1.13374 -1.82634,-2.50788 -2.21252,-4.00834l-12.7859 -0.000379922 -9.8831 9.88233c0.439225,0.75977 0.783045,1.58212 1.01582,2.44912l16.1624 0 0.774267 0.775792 9.97163 9.97239c1.25241,-0.612855 2.62504,-0.930725 4.02704,-0.930725 2.44874,0 4.77727,0.963158 6.50898,2.69487 1.72789,1.72789 2.68647,4.05833 2.68762,6.50058 0.00763344,2.44874 -0.957055,4.77765 -2.68762,6.5086 -1.72904,1.7298 -4.05833,2.69563 -6.50478,2.69563 -2.44797,0 -4.77613,-0.965838 -6.5063,-2.69563 -1.7298,-1.73018 -2.69487,-4.05871 -2.69487,-6.50516 0,-1.65424 0.440365,-3.26116 1.27531,-4.67462l-9.0451 -9.04586 -13.9662 0c-0.232013,0.867763 -0.575837,1.6905 -1.01468,2.45064l11.4209 11.4202 -0.000759845 1.10321 -0.00114477 14.0971c1.32263,0.453722 2.51972,1.20204 3.5134,2.19612l0.14768 0.147295 0.00534391 0.0160267c1.63402,1.71034 2.54376,3.97056 2.54376,6.34337 0,2.35105 -0.896002,4.59334 -2.50216,6.29909l-0.00419914 0.0160267 -0.188512 0.188891c-1.72942,1.7298 -4.0591,2.69487 -6.50707,2.69487 -2.4434,-0.00763344 -4.77346,-0.965068 -6.50402,-2.69487 -1.72522,-1.73362 -2.69335,-4.05833 -2.69335,-6.50516 0,-2.44645 0.964688,-4.7746 2.69487,-6.50516l0.188512 -0.188512 0.0160267 -0.0034343c1.13297,-1.06696 2.5075,-1.82635 4.00796,-2.21291l0.000764844 -12.7852 -9.88043 -9.88081c-0.76015,0.439985 -1.58326,0.78381 -2.45141,1.01697l0 16.1566 -10.7478 10.7474c0.612475,1.25241 0.929965,2.62541 0.929965,4.02742 0,2.44912 -0.962779,4.77727 -2.69449,6.50898 -1.72827,1.72789 -4.05795,2.68648 -6.50058,2.68762 -2.44836,0.00801336 -4.77727,-0.957055 -6.50822,-2.68762 -1.7298,-1.72942 -2.69601,-4.05833 -2.69601,-6.50516 0,-2.4476 0.966218,-4.77575 2.69601,-6.50631 1.7298,-1.72904 4.05872,-2.69411 6.5044,-2.69411 1.65424,0 3.26155,0.439605 4.675,1.27455l9.04586 -9.0451 0 -13.9624c-0.868523,-0.232398 -1.69164,-0.576217 -2.45293,-1.01582l-11.4175 11.4171 -15.2007 -0.000764844c-0.453722,1.32225 -1.20242,2.5201 -2.19573,3.51417l-0.1473 0.1473 -0.0160267 0.00572383c-1.71034,1.63326 -3.97132,2.54338 -6.34336,2.54338 -2.35143,0 -4.59334,-0.896002 -6.29986,-2.50254l-0.0152669 -0.0034343 -0.189271 -0.188891c-1.7298,-1.73018 -2.69449,-4.05948 -2.69449,-6.50669 0.0068686,-2.4434 0.964688,-4.77498 2.69449,-6.50402 1.73323,-1.7256 4.05833,-2.69373 6.50478,-2.69373 2.44683,0 4.77498,0.964308 6.50516,2.69487l0.188891 0.188891 0.00381422 0.0152669c1.06772,1.13374 1.82558,2.50712 2.21291,4.00834l12.7852 0.00114477 9.87966 -9.87966c-0.439985,-0.760915 -0.78419,-1.58403 -1.01697,-2.45255l-16.1555 0 -10.7482 -10.7478c-1.25241,0.61247 -2.62465,0.930345 -4.02742,0.930345 -2.44836,0 -4.77651,-0.962779 -6.50821,-2.69449 -1.72866,-1.72865 -2.68686,-4.05871 -2.688,-6.50096 -0.00763344,-2.44797 0.957055,-4.77765 2.688,-6.50859 1.72865,-1.7298 4.05833,-2.69525 6.50516,-2.69525 2.44683,0 4.77574,0.965453 6.50554,2.69525 1.7298,1.73018 2.69487,4.05833 2.69487,6.50516 0,1.65386 -0.43999,3.26117 -1.27455,4.67386l9.0451 9.04663 13.9632 0c0.232777,-0.868143 0.576602,-1.69126 1.0162,-2.45179zm27.9718 -38.4578c-0.736875,-0.73649 -1.72522,-1.14519 -2.76318,-1.15015 -1.04024,0 -2.02401,0.41671 -2.75745,1.15015 -0.73649,0.73573 -1.1429,1.72331 -1.1429,2.76394 0,1.03757 0.404882,2.02516 1.14175,2.75783 0.734585,0.734965 1.72141,1.14328 2.76089,1.14328 1.0391,0 2.02668,-0.408317 2.76089,-1.1429 0.73496,-0.73535 1.14404,-1.72179 1.14404,-2.76165 0,-1.03986 -0.409461,-2.02554 -1.14404,-2.76051zm25.2033 26.2862c-0.0068686,-1.04101 -0.415185,-2.03089 -1.14862,-2.76928 -0.735345,-0.7342 -1.72408,-1.13793 -2.76203,-1.13793 -1.04063,0 -2.02669,0.406022 -2.76203,1.14442 -0.7342,0.73344 -1.14214,1.7214 -1.14214,2.75936 0,1.03872 0.403738,2.02554 1.14214,2.75936 0.734965,0.73535 1.72369,1.14404 2.76127,1.14404 1.03872,0 2.02745,-0.404497 2.76089,-1.1429 0.735345,-0.733815 1.15053,-1.7214 1.15053,-2.75707zm-0.774652 36.3964c0.73649,-0.73649 1.14481,-1.72522 1.15015,-2.76318 0,-1.03834 -0.41709,-2.02402 -1.15015,-2.75707 -0.73611,-0.73611 -1.72407,-1.1429 -2.7647,-1.1429 -1.03681,0 -2.0244,0.404882 -2.75707,1.14175 -0.734965,0.7342 -1.14366,1.72102 -1.14366,2.76089 0,1.03872 0.408697,2.02669 1.1429,2.76051 0.735345,0.73573 1.72179,1.14404 2.76203,1.14404 1.03948,0 2.02554,-0.409077 2.76051,-1.14404zm-26.2862 25.2029c1.04062,-0.00572383 2.03088,-0.41518 2.76928,-1.14824 0.73382,-0.73611 1.13832,-1.72293 1.13832,-2.76165 0,-1.03948 -0.406407,-2.02745 -1.14519,-2.76204 -0.73382,-0.7342 -1.72102,-1.14289 -2.75936,-1.14289 -1.03834,0 -2.02516,0.404497 -2.75936,1.14289 -0.735345,0.734585 -1.14442,1.72331 -1.14442,2.76089 0,1.03872 0.404882,2.02783 1.14328,2.76165 0.734205,0.734205 1.72102,1.14939 2.75746,1.14939zm-36.3972 -0.773887c0.737255,0.735725 1.7256,1.1448 2.76356,1.14938 1.03872,0 2.02363,-0.415945 2.75745,-1.14938 0.73611,-0.73611 1.1429,-1.72408 1.1429,-2.76471 0,-1.03719 -0.405262,-2.02439 -1.14175,-2.75669 -0.734965,-0.735345 -1.72178,-1.14442 -2.76165,-1.14442 -1.03872,0 -2.02592,0.409077 -2.7605,1.14328 -0.73535,0.734965 -1.14404,1.72178 -1.14404,2.76165 0,1.03948 0.409836,2.02516 1.14404,2.76089zm-25.2025 -26.2866c0.00648868,1.04063 0.4148,2.03088 1.14824,2.77004 0.735725,0.73344 1.72331,1.13755 2.76203,1.13755 1.0391,0 2.02745,-0.405642 2.76127,-1.1448 0.734585,-0.73344 1.14328,-1.72102 1.14328,-2.75936 0,-1.0391 -0.405257,-2.02631 -1.14328,-2.75974 -0.73382,-0.734965 -1.72293,-1.14404 -2.76089,-1.14404 -1.03834,0 -2.02707,0.405262 -2.76089,1.1429 -0.734965,0.73458 -1.14977,1.7214 -1.14977,2.75745zm0.773887 -36.3968c-0.73611,0.736875 -1.14442,1.7256 -1.14977,2.76318 0,1.0391 0.41671,2.0244 1.14977,2.75746 0.73611,0.736105 1.72369,1.14328 2.76432,1.14328 1.03719,0 2.02516,-0.404882 2.75745,-1.14252 0.73535,-0.73382 1.14404,-1.72064 1.14404,-2.76051 0,-1.03872 -0.408692,-2.0263 -1.1429,-2.76089 -0.735725,-0.734965 -1.72255,-1.14366 -2.76165,-1.14366 -1.03987,0 -2.02593,0.409456 -2.76127,1.14366zm26.2862 -25.2029c-1.03987,0.00648868 -2.03089,0.415185 -2.76966,1.14862 -0.733055,0.73535 -1.13755,1.7237 -1.13755,2.76165 0,1.04063 0.406402,2.02669 1.14442,2.76165 0.73382,0.734965 1.72178,1.1429 2.75936,1.1429 1.03948,0 2.02668,-0.404882 2.7605,-1.1429 0.734965,-0.7342 1.14328,-1.72293 1.14328,-2.76051 0,-1.0391 -0.404882,-2.02745 -1.14252,-2.76089 -0.734585,-0.735345 -1.72102,-1.15053 -2.75783,-1.15053z"/>
   <polygon id="_178617552" class="fil0" points="118.985,1.18634 121.633,1.18634 121.633,113.294 118.985,113.294 "/>
   <path id="_178621440" class="fil1" d="M142.108 35.7605l0 37.6566 9.55462 0 0 -12.4771 2.47288 0 6.23883 12.4771 10.9596 0 -8.1496 -14.8378c1.69556,-1.13344 3.00681,-2.56665 3.93427,-4.29012 0.927461,-1.73296 1.3958,-3.70958 1.40502,-5.9388 -0.00921812,-1.84544 -0.346379,-3.541 -1.02097,-5.07719 -0.674322,-1.52698 -1.62049,-2.85693 -2.83823,-3.98115 -1.22722,-1.12396 -2.67913,-1.98583 -4.3465,-2.60405 -1.66737,-0.608741 -3.50334,-0.917978 -5.50787,-0.927461l-12.7021 0zm12.14 17.0299l-2.58535 0 0 -8.88027 2.58535 0c0.964868,0 1.79855,0.187282 2.50106,0.552627 0.702512,0.36535 1.24592,0.880575 1.62997,1.55516 0.39327,0.665104 0.590035,1.46113 0.590035,2.38858 0,0.880575 -0.196765,1.65789 -0.590035,2.31378 -0.384052,0.646138 -0.927461,1.16137 -1.62997,1.5175 -0.702512,0.365345 -1.5362,0.543144 -2.50106,0.552627zm27.8773 21.4699c1.13345,0.00922312 2.15442,-0.0937709 3.0537,-0.290536 0.908495,-0.19677 1.75167,-0.552632 2.54769,-1.04916 0.787069,-0.505742 1.58309,-1.19904 2.37937,-2.08882l0 2.58535 8.76782 0 0 -14.6128c-0.00921812,-1.76115 -0.308977,-3.38163 -0.917978,-4.85224 -0.599518,-1.47087 -1.45191,-2.74471 -2.55717,-3.82205 -1.10552,-1.08656 -2.42625,-1.92024 -3.94376,-2.51028 -1.52671,-0.590295 -3.21305,-0.890053 -5.05823,-0.899271 -1.58308,0 -3.03499,0.131173 -4.35599,0.393265 -1.32073,0.27184 -2.56639,0.702772 -3.72802,1.29281 -1.15215,0.580816 -2.2856,1.34891 -3.38164,2.30429l5.05823 5.9575c0.655891,-0.871087 1.42399,-1.54541 2.30456,-2.00454 0.88031,-0.458856 1.81725,-0.693024 2.81004,-0.693024 0.964863,0.00921812 1.81725,0.205983 2.57613,0.599518 0.749397,0.393265 1.33943,0.936679 1.77037,1.6297 0.430937,0.702512 0.646403,1.50828 0.655621,2.43547l0 0.224949c-0.814984,-0.477822 -1.75166,-0.852386 -2.79134,-1.11474 -1.04916,-0.262356 -2.17338,-0.402753 -3.39112,-0.402753 -2.09805,0.00922312 -3.93427,0.39327 -5.52658,1.13345 -1.59256,0.749392 -2.829,1.77985 -3.72828,3.09109 -0.899281,1.31151 -1.34892,2.829 -1.36762,4.54326 0.00948306,1.5736 0.393535,2.95992 1.14293,4.18714 0.739914,1.21774 1.77985,2.1826 3.0911,2.88511 1.32073,0.702507 2.85719,1.05837 4.59015,1.07734zm3.20358 -6.18245c-1.02124,-0.00948306 -1.82674,-0.234172 -2.41677,-0.674587 -0.5903,-0.440155 -0.890058,-1.05837 -0.899276,-1.85466 0.00921812,-0.824207 0.337161,-1.47061 0.974081,-1.92973 0.636925,-0.468339 1.5175,-0.702512 2.62302,-0.71173 0.702512,0 1.42372,0.102994 2.16364,0.31846 0.740179,0.215466 1.5175,0.552627 2.33248,1.03045 -0.0655866,0.739914 -0.299759,1.39554 -0.71173,1.96713 -0.412231,0.571333 -0.974346,1.02097 -1.66764,1.34865 -0.693024,0.327943 -1.48931,0.496524 -2.39781,0.506007zm30.0689 6.18245c1.57386,-0.00948306 2.99759,-0.290536 4.26221,-0.843168 1.27385,-0.552627 2.39807,-1.33943 3.38164,-2.36066l0 2.36066 8.43039 0 0 -39.9045 -8.76755 0 0 16.0742c-0.983569,-0.90876 -2.07961,-1.61127 -3.29735,-2.10779 -1.20852,-0.496264 -2.54796,-0.749397 -4.00934,-0.758615 -1.74218,0.00921812 -3.35346,0.355862 -4.84277,1.04915 -1.48009,0.68381 -2.79161,1.64867 -3.90608,2.88511 -1.11475,1.23644 -1.98584,2.69782 -2.60432,4.36519 -0.627437,1.66737 -0.945897,3.49385 -0.95538,5.47046 0.00948306,1.97635 0.327943,3.80309 0.95538,5.47046 0.618484,1.66737 1.48958,3.1285 2.60432,4.3652 1.11448,1.23644 2.42599,2.2013 3.90608,2.88511 1.48931,0.693024 3.10058,1.03967 4.84277,1.04915zm2.0235 -8.20595c-1.05864,-0.00921812 -1.99532,-0.252868 -2.81031,-0.730431 -0.814984,-0.477822 -1.46113,-1.13344 -1.92973,-1.96713 -0.468339,-0.83369 -0.702507,-1.78933 -0.71173,-2.86641 0.00922312,-1.07734 0.24339,-2.03272 0.71173,-2.86641 0.468604,-0.833685 1.11475,-1.48957 1.92973,-1.96713 0.814989,-0.477822 1.75167,-0.721213 2.81031,-0.730696 1.07708,0.00948306 2.02324,0.252873 2.85693,0.730696 0.824472,0.477558 1.47061,1.13344 1.93895,1.96713 0.468339,0.833685 0.702772,1.78907 0.71199,2.86641 -0.00921812,1.11475 -0.24365,2.08883 -0.71199,2.91303 -0.468344,0.83369 -1.11448,1.48009 -1.93895,1.94843 -0.833685,0.459116 -1.77985,0.693289 -2.85693,0.702507zm19.6714 -18.491l0 25.8538 8.76755 0 0 -25.8538 -8.76755 0zm4.38364 -3.59684c0.927461,-0.00948306 1.76115,-0.234172 2.51055,-0.674587 0.739914,-0.430937 1.33021,-1.02097 1.76115,-1.77037 0.440155,-0.739909 0.665104,-1.5736 0.674327,-2.50106 -0.00922312,-0.927456 -0.234172,-1.76115 -0.674327,-2.51054 -0.430937,-0.739909 -1.02124,-1.32994 -1.76115,-1.77036 -0.749397,-0.430937 -1.58309,-0.655621 -2.51055,-0.665104 -0.927196,0.00948306 -1.76089,0.234167 -2.51028,0.665104 -0.739914,0.44042 -1.33021,1.03045 -1.76115,1.77036 -0.44016,0.749397 -0.665109,1.58309 -0.674327,2.51054 0.00921812,0.927461 0.234167,1.76115 0.674327,2.50106 0.430932,0.749397 1.02123,1.33943 1.76115,1.77037 0.749397,0.440415 1.58309,0.665104 2.51028,0.674587zm22.9313 30.2938c1.99532,-0.00948306 3.84049,-0.365345 5.53606,-1.06785 1.70478,-0.702777 3.18487,-1.67686 4.45872,-2.932 1.2741,-1.24592 2.26689,-2.70731 2.97889,-4.37468 0.702512,-1.65789 1.06786,-3.45644 1.07734,-5.39539 -0.00948306,-1.93921 -0.374829,-3.73776 -1.08682,-5.40513 -0.71173,-1.65789 -1.714,-3.11928 -2.98811,-4.36493 -1.27385,-1.2554 -2.76342,-2.22949 -4.45872,-2.932 -1.69556,-0.702507 -3.541,-1.05863 -5.51735,-1.06785 -1.99532,0.00921812 -3.8405,0.365345 -5.53606,1.05837 -1.70478,0.702512 -3.18487,1.66737 -4.45898,2.9133 -1.27384,1.25514 -2.26689,2.70704 -2.97862,4.37442 -0.702512,1.66737 -1.06786,3.47541 -1.07734,5.42383 0.00948306,1.93895 0.374829,3.7375 1.08656,5.39539 0.721478,1.66737 1.71427,3.12876 2.98837,4.37468 1.27385,1.25514 2.76316,2.22922 4.45872,2.932 1.70478,0.702507 3.54074,1.05837 5.51736,1.06785zm0 -8.31816c-1.05864,-0.00948306 -1.96714,-0.234167 -2.73524,-0.674587 -0.777581,-0.449638 -1.3771,-1.08656 -1.79855,-1.91076 -0.421454,-0.814984 -0.627702,-1.78933 -0.63692,-2.92278 0.00921812,-1.07708 0.215466,-2.01375 0.63692,-2.81952 0.421454,-0.814984 1.02097,-1.44242 1.79855,-1.89206 0.768098,-0.449638 1.6766,-0.674587 2.73524,-0.683805 1.05837,0.00921812 1.96713,0.234167 2.74445,0.683805 0.768363,0.449638 1.36788,1.07708 1.78933,1.89206 0.421454,0.805766 0.63692,1.74244 0.63692,2.81952 0,1.13345 -0.215466,2.10779 -0.63692,2.92278 -0.421454,0.824202 -1.02097,1.46112 -1.78933,1.91076 -0.777316,0.44042 -1.68608,0.665104 -2.74445,0.674587zm18.5474 -32.4295l0 39.9045 8.76756 0 0 -39.9045 -8.76756 0zm27.3149 40.7476c1.99532,-0.00948306 3.8405,-0.365345 5.53606,-1.06785 1.70478,-0.702777 3.18487,-1.67686 4.45872,-2.932 1.2741,-1.24592 2.26689,-2.70731 2.97889,-4.37468 0.702507,-1.65789 1.06786,-3.45644 1.07734,-5.39539 -0.00948306,-1.93921 -0.374834,-3.73776 -1.08682,-5.40513 -0.71173,-1.65789 -1.714,-3.11928 -2.98811,-4.36493 -1.27385,-1.2554 -2.76342,-2.22949 -4.45872,-2.932 -1.69556,-0.702507 -3.541,-1.05863 -5.51735,-1.06785 -1.99532,0.00921812 -3.8405,0.365345 -5.53606,1.05837 -1.70478,0.702512 -3.18487,1.66737 -4.45898,2.9133 -1.27385,1.25514 -2.26689,2.70704 -2.97862,4.37442 -0.702512,1.66737 -1.06786,3.47541 -1.07734,5.42383 0.00948306,1.93895 0.374829,3.7375 1.08656,5.39539 0.721478,1.66737 1.71427,3.12876 2.98837,4.37468 1.27385,1.25514 2.76316,2.22922 4.45872,2.932 1.70478,0.702507 3.54074,1.05837 5.51735,1.06785zm0 -8.31816c-1.05864,-0.00948306 -1.96713,-0.234167 -2.73523,-0.674587 -0.777581,-0.449638 -1.3771,-1.08656 -1.79855,-1.91076 -0.421454,-0.814984 -0.627702,-1.78933 -0.636925,-2.92278 0.00922312,-1.07708 0.215471,-2.01375 0.636925,-2.81952 0.421454,-0.814984 1.02097,-1.44242 1.79855,-1.89206 0.768098,-0.449638 1.67659,-0.674587 2.73523,-0.683805 1.05838,0.00921812 1.96713,0.234167 2.74445,0.683805 0.768363,0.449638 1.36788,1.07708 1.78933,1.89206 0.421454,0.805766 0.63692,1.74244 0.63692,2.81952 0,1.13345 -0.215466,2.10779 -0.63692,2.92278 -0.421454,0.824202 -1.02097,1.46112 -1.78933,1.91076 -0.777321,0.44042 -1.68608,0.665104 -2.74445,0.674587zm30.0481 15.231c-1.58308,0 -2.80319,-0.287381 -3.65321,-0.83369 -0.853971,-0.548938 -1.29281,-1.32073 -1.29281,-2.31377 0,-0.992787 0.44042,-1.75167 1.29281,-2.28559 0.852386,-0.533926 2.07013,-0.805501 3.65321,-0.805501 1.58309,0 2.80082,0.271575 3.65321,0.805501 0.852391,0.533926 1.29281,1.29281 1.29281,2.28559 0,0.993047 -0.438835,1.76483 -1.29281,2.31377 -0.850022,0.546309 -2.07013,0.83369 -3.65321,0.83369zm-0.0561036 6.29493c2.77263,-0.00948306 5.16017,-0.425933 7.18473,-1.23644 2.0214,-0.80919 3.58077,-1.9566 4.6834,-3.44722 1.10737,-1.49668 1.67686,-3.26916 1.67686,-5.32058 0,-1.36762 -0.258932,-2.55032 -0.749397,-3.55022 -0.49231,-1.00385 -1.16716,-1.84148 -2.01402,-2.51976 -0.847912,-0.679331 -1.81751,-1.21826 -2.90381,-1.62075 -1.08603,-0.402488 -2.22054,-0.692764 -3.41904,-0.871092 -1.18929,-0.176744 -2.38016,-0.262351 -3.55944,-0.262351l-3.20384 0c-1.19798,0 -2.06196,-0.129599 -2.59457,-0.39327 -0.525238,-0.260247 -0.78259,-0.674852 -0.777581,-1.23644 0.0034243,-0.393005 0.126699,-0.716999 0.374829,-0.974346 0.248129,-0.257347 0.608736,-0.458856 1.08656,-0.599518 0.533931,0.140661 1.08735,0.239441 1.6579,0.299759 0.571593,0.0605826 1.18112,0.0961454 1.82674,0.0937759 1.75167,-0.00632371 3.35424,-0.2426 4.81484,-0.711995 1.45191,-0.466495 2.71706,-1.13371 3.78439,-1.99505 1.06759,-0.861344 1.89601,-1.8723 2.4821,-3.05395 0.583976,-1.17796 0.883735,-2.48209 0.890053,-3.90608 0.00237452,-0.533136 -0.0418815,-1.05047 -0.131173,-1.5549 -0.087982,-0.497054 -0.234172,-0.974346 -0.430937,-1.42398l2.86641 0 0 -5.62034 -9.04887 0c-0.758615,-0.281058 -1.57386,-0.497578 -2.43547,-0.63692 -0.870567,-0.140921 -1.78038,-0.208882 -2.73524,-0.205983 -1.7514,0.00552887 -3.35372,0.243915 -4.80536,0.702507 -1.45138,0.458591 -2.70758,1.11501 -3.76569,1.96713 -1.05811,0.851861 -1.88522,1.85413 -2.46366,3.01628 -0.582131,1.16953 -0.88031,2.45417 -0.88031,3.86868 0,1.31151 0.260772,2.50237 0.758615,3.56891 0.494419,1.0589 1.19904,2.02324 2.10753,2.89459 -1.04889,0.533926 -1.88074,1.21009 -2.49158,2.03246 -0.606106,0.816038 -0.93194,1.78959 -0.936684,2.9133 -0.00368925,0.926931 0.226534,1.76984 0.68381,2.51976 0.450693,0.738859 1.14267,1.38632 2.07013,1.92024 -2.02324,1.57386 -3.04052,3.59737 -3.035,6.07024 0.00316435,1.39501 0.331897,2.65858 0.964868,3.79361 0.630601,1.13107 1.5362,2.11701 2.71653,2.932 1.18033,0.814984 2.59458,1.444 4.23403,1.88284 1.64788,0.440945 3.48463,0.655621 5.51735,0.665104l0 0zm-0.674592 -27.9334c-1.10526,-0.00922312 -1.96028,-0.306872 -2.56665,-0.889793 -0.601362,-0.578182 -0.917978,-1.3771 -0.917978,-2.36988 0,-0.993052 0.316615,-1.7917 0.917978,-2.36989 0.606366,-0.582921 1.46139,-0.890053 2.56665,-0.890053 1.10526,0 1.96055,0.307397 2.56666,0.890053 0.601357,0.578182 0.917978,1.37683 0.917978,2.36989 0,0.992782 -0.31662,1.7917 -0.917978,2.36988 -0.606106,0.582656 -1.46139,0.88057 -2.56666,0.889793l0 0zm25.9307 14.4445l-5.00212 13.4889 8.88029 0 14.7814 -39.9047 -8.9925 0 -4.49638 15.3438 -5.28292 -15.3438 -9.32993 0 9.44214 26.4159zm34.678 -38.2187l0 37.6566 9.55462 0 0 -14.6128 12.9268 0 0 14.6128 9.55462 0 0 -37.6566 -9.55462 0 0 14.051 -12.9268 0 0 -14.051 -9.55462 0zm48.0541 38.4997c1.49879,-0.00948306 2.85693,-0.356127 4.09337,-1.05863 1.23644,-0.702512 2.3043,-1.71426 3.21305,-3.04447l0 3.25994 8.43065 0 0 -25.8538 -8.76782 0 0 13.6013c0,1.05863 -0.159362,1.96713 -0.468339,2.73523 -0.309242,0.777581 -0.749397,1.3771 -1.33021,1.79855 -0.580816,0.421454 -1.2741,0.627702 -2.07961,0.63692 -0.805501,-0.00921812 -1.49879,-0.215466 -2.07961,-0.618219 -0.580552,-0.412236 -1.02097,-0.983564 -1.32995,-1.72348 -0.309242,-0.740179 -0.468339,-1.60178 -0.468339,-2.60405l0 -13.8263 -8.76782 0 0 16.0742c0.00921812,1.50827 0.252873,2.91329 0.730696,4.19661 0.477558,1.28333 1.14267,2.40755 2.00454,3.37215 0.861609,0.955645 1.86414,1.70504 3.02551,2.23897 1.16163,0.533931 2.42625,0.805501 3.79387,0.814984zm37.4317 0c1.74218,-0.00948306 3.35346,-0.356127 4.84277,-1.04915 1.48931,-0.68381 2.79161,-1.64867 3.90608,-2.88511 1.11475,-1.2367 1.9861,-2.69782 2.61354,-4.3652 0.618219,-1.66737 0.936679,-3.49411 0.946162,-5.47046 -0.00948306,-1.97661 -0.327943,-3.80308 -0.946162,-5.47046 -0.627437,-1.66737 -1.49879,-3.12876 -2.61354,-4.36519 -1.11448,-1.23644 -2.41677,-2.2013 -3.90608,-2.88511 -1.48931,-0.693289 -3.10058,-1.03993 -4.84277,-1.04915 -1.46139,0.00921812 -2.80082,0.262351 -4.00934,0.758615 -1.21774,0.496524 -2.31378,1.19903 -3.29735,2.10779l0 -16.0742 -8.76755 0 0 39.9045 8.43039 0 0 -2.36066c0.983569,1.02123 2.10779,1.80804 3.38164,2.36066 1.26462,0.552632 2.68835,0.833685 4.26221,0.843168zm-2.0235 -8.20595c-1.07708,-0.00921812 -2.02324,-0.252868 -2.84745,-0.730431 -0.824467,-0.477822 -1.48009,-1.13344 -1.94843,-1.96713 -0.468339,-0.83369 -0.702507,-1.78933 -0.71199,-2.86641 0.00948306,-1.11474 0.24365,-2.08909 0.71199,-2.91329 0.468344,-0.833685 1.12397,-1.48009 1.94843,-1.94843 0.824207,-0.458861 1.77037,-0.693029 2.84745,-0.702512 1.05864,0.00948306 1.99532,0.252873 2.81031,0.730696 0.824202,0.477558 1.46113,1.13344 1.92973,1.96713 0.468339,0.833685 0.702507,1.78907 0.71173,2.86641 -0.00922312,1.07708 -0.24339,2.03272 -0.71173,2.86641 -0.468604,0.833685 -1.10553,1.48931 -1.92973,1.96713 -0.814989,0.477563 -1.75167,0.721213 -2.81031,0.730431z"/>
  </g>
 </g>
</svg>
